<svg xmlns="http://www.w3.org/2000/svg" viewBox="0 0 100 120">
  <!-- 육각형 배경 -->
  <path d="M50 0 L93.3 25 L93.3 75 L50 100 L6.7 75 L6.7 25 Z" fill="#F5CB5C"/>
  <!-- 아래 삼각형 -->
  <path d="M50 100 L65 100 L50 120 L35 100 Z" fill="#F5CB5C"/>

  <!-- 지붕 -->
  <path d="M25 35 L50 22 L75 35" stroke="white" stroke-width="4" fill="none" stroke-linecap="round"/>

  <!-- 기둥들 -->
  <line x1="30" y1="38" x2="30" y2="72" stroke="white" stroke-width="4" stroke-linecap="round"/>
  <line x1="42" y1="38" x2="42" y2="72" stroke="white" stroke-width="4" stroke-linecap="round"/>
  <line x1="58" y1="38" x2="58" y2="72" stroke="white" stroke-width="4" stroke-linecap="round"/>
  <line x1="70" y1="38" x2="70" y2="72" stroke="white" stroke-width="4" stroke-linecap="round"/>

  <!-- 가운데 세로줄 (ㅣ) -->
  <line x1="50" y1="38" x2="50" y2="72" stroke="white" stroke-width="4" stroke-linecap="round"/>

  <!-- 가로줄들 -->
  <line x1="30" y1="50" x2="42" y2="50" stroke="white" stroke-width="3" stroke-linecap="round"/>
  <line x1="58" y1="50" x2="70" y2="50" stroke="white" stroke-width="3" stroke-linecap="round"/>
  <line x1="30" y1="62" x2="42" y2="62" stroke="white" stroke-width="3" stroke-linecap="round"/>
  <line x1="58" y1="62" x2="70" y2="62" stroke="white" stroke-width="3" stroke-linecap="round"/>

  <!-- 바닥 -->
  <line x1="22" y1="76" x2="78" y2="76" stroke="white" stroke-width="4" stroke-linecap="round"/>
</svg>
